<?xml version="1.0" standalone="no"?>
<!DOCTYPE svg PUBLIC "-//W3C//DTD SVG 20010904//EN"
 "http://www.w3.org/TR/2001/REC-SVG-20010904/DTD/svg10.dtd">
<svg version="1.0" xmlns="http://www.w3.org/2000/svg"
 width="40px" height="40px" viewBox="0 0 300.000000 300.000000"
 preserveAspectRatio="xMidYMid meet">
<circle cx="150" cy="150" r="150" fill="white"/>
<g transform="translate(0.000000,300.000000) scale(0.100000,-0.100000)"
fill="#000000" stroke="none">
<path d="M1005 2072 c-44 -27 -135 -130 -135 -154 0 -11 28 -50 63 -86 111
-118 109 -97 17 -188 -56 -56 -80 -88 -80 -104 0 -35 595 -630 630 -630 35 0
630 595 630 630 0 16 -24 48 -80 104 -44 44 -80 81 -80 84 0 2 36 41 80 87 44
46 80 90 80 97 0 45 -135 178 -181 178 -7 0 -108 -94 -224 -210 -116 -115
-217 -210 -225 -210 -8 0 -109 95 -225 210 -116 116 -218 210 -226 210 -7 0
-27 -8 -44 -18z m267 -244 l228 -233 228 233 229 233 71 -73 71 -73 -299 -300
-300 -300 -300 300 -299 299 67 72 c37 39 69 72 72 73 2 0 107 -104 232 -231z
m0 -375 l228 -228 230 230 230 230 70 -70 70 -70 -300 -300 -300 -300 -300
300 -300 300 67 67 c37 38 70 68 73 68 3 0 107 -102 232 -227z"/>
</g>
</svg>
